<?xml version="1.0" encoding="utf-8"?>
<!-- Generator: Adobe Illustrator 24.3.0, SVG Export Plug-In . SVG Version: 6.00 Build 0)  -->
<svg version="1.1" id="Layer_1" xmlns="http://www.w3.org/2000/svg" xmlns:xlink="http://www.w3.org/1999/xlink" x="0px" y="0px"
	 viewBox="0 0 1303.6 712.3" style="enable-background:new 0 0 1303.6 712.3;" xml:space="preserve">
<style type="text/css">
	.st0{fill:#B48E1E;}
	.st1{fill-rule:evenodd;clip-rule:evenodd;fill:#B48E1E;}
</style>
<path class="st0" d="M534,56.8c-90.3,0-137.1,53.5-137.1,147.2v304.4c0,93.7,46.8,147.2,137.1,147.2c16.2,0,31.1-1.7,44.5-5.1V547.1
	c-7.6,17.1-22.3,23.9-42,23.9c-29.3,0-47.7-15-47.7-56.9V198.1c0-41.8,18.4-57.7,47.7-57.7c29.3,0,47.7,15.9,47.7,57.7v62.7h87V204
	C671.1,110.3,624.3,56.8,534,56.8"/>
<path class="st1" d="M824.8,392.6c-48.7,61.3-97,122.1-145.2,182.8c2.4,2.4,21.3,26,31.3,36c24.1-30.4,47.4-59.8,72.4-91.3v135.3
	h45.5V388.7L824.8,392.6z"/>
<path class="st1" d="M697.7,519.9c-0.9-0.9-1.8-1.8-2.7-2.7c-0.3-0.3-0.5-0.5-0.7-0.8c-0.2-0.2-0.4-0.5-0.6-0.7l0,0.1
	c-33.5-42.1-66.6-83.8-100.9-126.9v264.6c6.7-8.3,12.4-15.3,17.9-22.4c9.3-11.9,22.2-22.5,26.8-36c4.6-13.8,1-30.4,1-45.7v-25.6
	c0.8-0.1,1.5-0.3,2.3-0.4c9.1,11.4,18.3,22.8,27.8,34.7c2.3-2.8,4.3-5,6.1-7.3c7.9-10,15.9-19.9,23.8-29.9
	C698.2,520.4,697.9,520.2,697.7,519.9"/>
<path class="st0" d="M869.7,616.8h-0.2c-1.6,1.6-2.9,3.4-3.8,5.4c-0.9,2-1.4,4.2-1.4,6.5c0,2.4,0.5,4.6,1.5,6.7
	c1,2.1,2.4,3.9,4.2,5.5c1.8,1.6,3.9,2.8,6.3,3.8c2.4,0.9,5,1.4,7.7,1.4c2.7,0,5.2-0.4,7.7-1.3c2.4-0.9,4.5-2.1,6.4-3.6
	c1.8-1.5,3.3-3.4,4.3-5.5c1.1-2.1,1.6-4.4,1.6-7c0-2.3-0.5-4.4-1.4-6.4c-0.9-2-2.2-3.8-3.8-5.4l1.8-1.8c1.9,1.8,3.4,3.8,4.5,6.2
	c1.1,2.3,1.6,4.8,1.6,7.4s-0.6,5.2-1.8,7.6c-1.2,2.4-2.8,4.6-4.9,6.4c-2.1,1.9-4.5,3.3-7.2,4.5c-2.8,1.1-5.7,1.7-8.8,1.7
	c-3,0-5.9-0.5-8.6-1.6c-2.7-1-5.1-2.5-7.2-4.3c-2.1-1.8-3.7-3.9-4.9-6.4c-1.2-2.4-1.8-5.1-1.8-7.9c0-2.7,0.5-5.2,1.6-7.5
	c1.1-2.4,2.6-4.4,4.5-6.2L869.7,616.8z"/>
<polygon class="st0" points="883.9,581.3 883.9,600.9 903.5,600.9 903.5,578 906.2,577.9 906.2,603.5 861.8,603.6 861.8,578 
	864.4,578 864.4,600.9 881.2,600.9 881.2,581.3 "/>
<polygon class="st0" points="861.8,563.2 900.8,540.3 861.8,540.3 861.8,537.6 906.2,537.5 906.2,540.2 867,563.2 906.2,563.2 
	906.2,565.8 861.8,565.9 "/>
<polygon class="st0" points="864.4,508.1 906.2,508.1 906.2,510.8 864.4,510.8 864.4,525.3 861.8,525.3 861.8,508.1 861.8,493.7 
	864.4,493.7 "/>
<path class="st0" d="M883.9,479.3l22.3-0.1v2.7l-44.3,0.1v-12.7c0-1.8,0.3-3.4,0.9-4.9c0.6-1.5,1.4-2.8,2.3-4c1-1.1,2.1-2,3.5-2.7
	c1.3-0.7,2.8-1,4.3-1s3,0.3,4.3,1c1.3,0.7,2.5,1.6,3.5,2.7c1,1.1,1.8,2.5,2.4,4c0.6,1.5,0.9,3.2,0.9,4.9v6.4l22.3-19.6v3.5
	l-22.3,19.7V479.3z M864.3,479.3h16.9v-10c0-1.3-0.2-2.6-0.6-3.8c-0.4-1.2-1-2.2-1.8-3.1c-0.7-0.9-1.6-1.6-2.7-2.1
	c-1-0.5-2.1-0.8-3.3-0.8c-1.2,0-2.2,0.3-3.3,0.8c-1,0.5-1.9,1.3-2.7,2.1c-0.8,0.9-1.4,1.9-1.8,3.1c-0.5,1.2-0.7,2.5-0.7,3.8v0.1
	V479.3z"/>
<path class="st0" d="M861.8,429.5v-2.2l44.3-16.4v2.8l-18.4,6.9v15.6l18.4,6.8v2.8L861.8,429.5z M885.1,421.6l-18.5,6.9l18.5,6.8
	V421.6z"/>
<polygon class="st0" points="903.5,397.7 903.5,376.1 906.2,376 906.2,400.3 861.8,400.4 861.8,397.7 "/>
<polygon class="st0" points="883.9,342.6 883.9,362.2 903.5,362.2 903.5,339.3 906.2,339.2 906.2,364.8 861.8,364.9 861.8,339.3 
	864.4,339.3 864.4,362.2 881.2,362.2 881.2,342.6 "/>
<polygon class="st0" points="861.8,273.4 861.8,270.6 906.2,270.5 906.2,273.3 867,273.4 890.5,287 890.5,288.6 867,302.4 
	906.2,302.4 906.2,305 861.8,305.1 861.8,302.4 886.6,287.7 "/>
<polygon class="st0" points="883.9,235.8 883.9,255.4 903.5,255.4 903.5,232.5 906.2,232.4 906.2,258 861.8,258.1 861.8,232.5 
	864.4,232.5 864.4,255.4 881.2,255.4 881.2,235.8 "/>
<path class="st0" d="M895.1,217.7c1.2-0.1,2.4-0.5,3.5-1.3c1.1-0.7,2-1.7,2.8-3c0.8-1.2,1.4-2.6,1.9-4.3c0.5-1.6,0.7-3.4,0.7-5.2
	c0-1.8-0.2-3.4-0.7-5c-0.5-1.6-1.1-3-1.9-4.2c-0.8-1.2-1.7-2.2-2.8-2.9c-1.1-0.7-2.3-1.1-3.5-1.2h-33.2V188h33.2
	c1.6,0.1,3.1,0.6,4.5,1.4c1.4,0.9,2.7,2,3.7,3.5c1.1,1.5,1.9,3.1,2.5,5.1c0.6,1.9,0.9,4,0.9,6.1c0,2.2-0.3,4.3-0.9,6.3
	c-0.6,2-1.5,3.7-2.5,5.2c-1.1,1.5-2.3,2.7-3.7,3.6c-1.4,0.9-2.9,1.4-4.5,1.5h-33.2v-2.9H895.1z"/>
<path class="st0" d="M906.2,162.1v13l-44.3,0.1v-2.7V161c0-1.6,0.4-3.2,1-4.6c0.6-1.4,1.4-2.7,2.4-3.7c1-1,2.1-1.9,3.4-2.5
	c1.3-0.6,2.7-0.9,4.1-0.9c2.2,0,4.1,0.6,5.9,1.7c1.7,1.2,3.1,2.7,4.1,4.6c0.9-2.2,2.4-4,4.4-5.3c2-1.3,4.1-2,6.5-2
	c1.7,0,3.3,0.3,4.7,1c1.5,0.6,2.8,1.5,3.9,2.7c1.1,1.1,2,2.5,2.7,4c0.7,1.5,1,3.2,1.1,5L906.2,162.1z M864.4,162.2v10.3h16.8V161
	c0-1.3-0.3-2.5-0.7-3.6c-0.5-1.1-1-2-1.8-2.9c-0.7-0.8-1.6-1.5-2.7-1.9c-1-0.5-2.1-0.7-3.3-0.7c-1.1,0-2.1,0.2-3.1,0.7
	c-1,0.5-1.9,1.1-2.6,1.9c-0.8,0.8-1.4,1.8-1.8,2.9c-0.4,1.1-0.7,2.3-0.8,3.6V162.2z M903.5,161c0-1.4-0.3-2.7-0.9-3.9
	c-0.6-1.2-1.3-2.3-2.2-3.2c-0.9-0.9-1.9-1.6-3.1-2.1c-1.2-0.5-2.4-0.8-3.7-0.8c-1.3,0-2.5,0.3-3.6,0.8c-1.1,0.5-2.1,1.2-3,2.1
	c-0.9,0.9-1.6,2-2.1,3.2c-0.5,1.2-0.8,2.5-0.9,3.9v11.5h19.6v-10.3V161z"/>
<polygon class="st0" points="903.5,133.8 903.5,112.2 906.2,112.1 906.2,136.4 861.8,136.5 861.8,133.8 "/>
<polygon class="st0" points="883.9,78.7 883.9,98.3 903.5,98.3 903.5,75.4 906.2,75.3 906.2,100.9 861.8,101 861.8,75.4 864.4,75.4 
	864.4,98.3 881.2,98.3 881.2,78.7 "/>
</svg>
