<?xml version="1.0" encoding="utf-8"?>
<!-- Generator: Adobe Illustrator 24.3.0, SVG Export Plug-In . SVG Version: 6.00 Build 0)  -->
<svg version="1.1" xmlns="http://www.w3.org/2000/svg" xmlns:xlink="http://www.w3.org/1999/xlink" x="0px" y="0px"
	 viewBox="0 0 1303.6 712.3" style="enable-background:new 0 0 1303.6 712.3;" xml:space="preserve">
<style type="text/css">
	.st0{fill:none;stroke:#FFFFFF;stroke-width:6;stroke-miterlimit:10;}
	.st1{fill-rule:evenodd;clip-rule:evenodd;fill:none;stroke:#FFFFFF;stroke-width:6;stroke-miterlimit:10;}
	.st2{fill:#B48E1E;stroke:#FFFFFF;stroke-miterlimit:10;}
	.st3{fill-rule:evenodd;clip-rule:evenodd;fill:#B48E1E;stroke:#FFFFFF;stroke-miterlimit:10;}
</style>
<g id="Layer_1">
	<path class="st0" d="M525.7,48.4c-92.8,0-140.9,55-140.9,151.3v312.9c0,96.3,48.1,151.3,140.9,151.3c16.7,0,32-1.7,45.7-5.2V552.5
		c-7.8,17.6-22.9,24.6-43.2,24.6c-30.1,0-49-15.4-49-58.5V193.7c0-43,18.9-59.3,49-59.3c30.1,0,49,16.3,49,59.3v64.5h89.4v-58.4
		C666.6,103.4,618.5,48.4,525.7,48.4"/>
	<path class="st1" d="M824.7,393.6c-50.1,63-99.7,125.5-149.3,187.9c2.5,2.5,21.9,26.7,32.2,37c24.8-31.3,48.7-61.5,74.4-93.9v139.1
		h46.8V389.6L824.7,393.6z"/>
	<path class="st1" d="M694,524.5c-0.9-0.9-1.9-1.9-2.8-2.8c-0.3-0.3-0.5-0.5-0.7-0.8c-0.2-0.2-0.4-0.5-0.6-0.7v0.1
		c-34.4-43.3-68.5-86.2-103.7-130.5v272c6.9-8.5,12.7-15.7,18.4-23c9.6-12.2,22.8-23.1,27.6-37c4.7-14.2,1-31.3,1-47v-26.3
		c0.8-0.1,1.5-0.3,2.4-0.4c9.4,11.7,18.8,23.4,28.6,35.7c2.4-2.9,4.4-5.1,6.3-7.5c8.1-10.3,16.3-20.5,24.5-30.7
		C694.5,525,694.2,524.8,694,524.5"/>
	<path class="st0" d="M869.8,625.1h-0.2c-1.6,1.6-3,3.5-3.9,5.6c-0.9,2.1-1.4,4.3-1.4,6.7c0,2.5,0.5,4.7,1.5,6.9
		c1,2.2,2.5,4,4.3,5.7c1.9,1.6,4,2.9,6.5,3.9c2.5,0.9,5.1,1.4,7.9,1.4s5.3-0.4,7.9-1.3c2.5-0.9,4.6-2.2,6.6-3.7
		c1.9-1.5,3.4-3.5,4.4-5.7c1.1-2.2,1.6-4.5,1.6-7.2c0-2.4-0.5-4.5-1.4-6.6s-2.3-3.9-3.9-5.6l1.9-1.9c2,1.9,3.5,3.9,4.6,6.4
		c1.1,2.4,1.6,4.9,1.6,7.6s-0.6,5.3-1.9,7.8c-1.2,2.5-2.9,4.7-5,6.6c-2.2,2-4.6,3.4-7.4,4.6c-2.9,1.1-5.9,1.7-9,1.7
		c-3.1,0-6.1-0.5-8.8-1.6c-2.8-1-5.2-2.6-7.4-4.4c-2.2-1.9-3.8-4-5-6.6c-1.2-2.5-1.9-5.2-1.9-8.1c0-2.8,0.5-5.3,1.6-7.7
		c1.1-2.5,2.7-4.5,4.6-6.4L869.8,625.1z"/>
	<polygon class="st0" points="884.4,588.6 884.4,608.8 904.6,608.8 904.6,585.2 907.3,585.1 907.3,611.4 861.7,611.5 861.7,585.2 
		864.4,585.2 864.4,608.8 881.6,608.8 881.6,588.6 	"/>
	<polygon class="st0" points="861.7,570 901.8,546.5 861.7,546.5 861.7,543.7 907.3,543.6 907.3,546.4 867,570 907.3,570 
		907.3,572.7 861.7,572.8 	"/>
	<polygon class="st0" points="864.4,513.4 907.3,513.4 907.3,516.1 864.4,516.1 864.4,531 861.7,531 861.7,513.4 861.7,498.6 
		864.4,498.6 	"/>
	<path class="st0" d="M884.4,483.8l22.9-0.1v2.8l-45.5,0.1v-13.1c0-1.9,0.3-3.5,0.9-5c0.6-1.5,1.4-2.9,2.4-4.1
		c1-1.1,2.2-2.1,3.6-2.8c1.3-0.7,2.9-1,4.4-1c1.5,0,3.1,0.3,4.4,1c1.3,0.7,2.6,1.6,3.6,2.8s1.9,2.6,2.5,4.1c0.6,1.5,0.9,3.3,0.9,5
		v6.6l22.9-20.1v3.6l-22.9,20.3l0,0H884.4z M864.3,483.8h17.4v-10.3c0-1.3-0.2-2.7-0.6-3.9c-0.4-1.2-1-2.3-1.9-3.2
		c-0.7-0.9-1.6-1.6-2.8-2.2c-1-0.5-2.2-0.8-3.4-0.8c-1.2,0-2.3,0.3-3.4,0.8c-1,0.5-2,1.3-2.8,2.2c-0.8,0.9-1.4,2-1.9,3.2
		c-0.5,1.2-0.7,2.6-0.7,3.9v0.1L864.3,483.8L864.3,483.8z"/>
	<path class="st0" d="M861.7,432.6v-2.3l45.5-16.9v2.9l-18.9,7.1v16l18.9,7v2.9L861.7,432.6z M885.6,424.4l-19,7.1l19,7V424.4z"/>
	<polygon class="st0" points="904.6,399.9 904.6,377.7 907.3,377.6 907.3,402.5 861.7,402.6 861.7,399.9 	"/>
	<polygon class="st0" points="884.4,343.2 884.4,363.4 904.6,363.4 904.6,339.8 907.3,339.7 907.3,366 861.7,366.1 861.7,339.8 
		864.4,339.8 864.4,363.4 881.6,363.4 881.6,343.2 	"/>
	<polygon class="st0" points="861.7,272.1 861.7,269.2 907.3,269.1 907.3,272 867,272.1 891.2,286.1 891.2,287.7 867,301.9 
		907.3,301.9 907.3,304.6 861.7,304.7 861.7,301.9 887.2,286.8 	"/>
	<polygon class="st0" points="884.4,233.4 884.4,253.6 904.6,253.6 904.6,230 907.3,229.9 907.3,256.2 861.7,256.3 861.7,230 
		864.4,230 864.4,253.6 881.6,253.6 881.6,233.4 	"/>
	<path class="st0" d="M895.9,214.8c1.2-0.1,2.5-0.5,3.6-1.3c1.1-0.7,2.1-1.7,2.9-3.1c0.8-1.2,1.4-2.7,2-4.4c0.5-1.6,0.7-3.5,0.7-5.3
		c0-1.9-0.2-3.5-0.7-5.1s-1.1-3.1-2-4.3c-0.8-1.2-1.7-2.3-2.9-3c-1.1-0.7-2.4-1.1-3.6-1.2h-34.1v-2.7h34.1c1.6,0.1,3.2,0.6,4.6,1.4
		c1.4,0.9,2.8,2.1,3.8,3.6c1.1,1.5,2,3.2,2.6,5.2c0.6,2,0.9,4.1,0.9,6.3c0,2.3-0.3,4.4-0.9,6.5c-0.6,2.1-1.5,3.8-2.6,5.3
		c-1.1,1.5-2.4,2.8-3.8,3.7c-1.4,0.9-3,1.4-4.6,1.5h-34.1v-3h34.1V214.8z"/>
	<path class="st0" d="M907.3,157.7V171l-45.5,0.1v-2.8v-11.8c0-1.6,0.4-3.3,1-4.7s1.4-2.8,2.5-3.8c1-1,2.2-2,3.5-2.6
		c1.3-0.6,2.8-0.9,4.2-0.9c2.3,0,4.2,0.6,6.1,1.7c1.7,1.2,3.2,2.8,4.2,4.7c0.9-2.3,2.5-4.1,4.5-5.4c2.1-1.3,4.2-2.1,6.7-2.1
		c1.7,0,3.4,0.3,4.8,1c1.5,0.6,2.9,1.5,4,2.8c1.1,1.1,2.1,2.6,2.8,4.1s1,3.3,1.1,5.1L907.3,157.7z M864.4,157.8v10.6h17.3v-11.8
		c0-1.3-0.3-2.6-0.7-3.7c-0.5-1.1-1-2.1-1.9-3c-0.7-0.8-1.6-1.5-2.8-2c-1-0.5-2.2-0.7-3.4-0.7c-1.1,0-2.2,0.2-3.2,0.7
		c-1,0.5-2,1.1-2.7,2c-0.8,0.8-1.4,1.9-1.9,3c-0.4,1.1-0.7,2.4-0.8,3.7L864.4,157.8L864.4,157.8z M904.6,156.5c0-1.4-0.3-2.8-0.9-4
		c-0.6-1.2-1.3-2.4-2.3-3.3c-0.9-0.9-2-1.6-3.2-2.2c-1.2-0.5-2.5-0.8-3.8-0.8c-1.3,0-2.6,0.3-3.7,0.8c-1.1,0.5-2.2,1.2-3.1,2.2
		c-0.9,0.9-1.6,2.1-2.2,3.3c-0.5,1.2-0.8,2.6-0.9,4v11.8h20.1v-10.6v-1.2H904.6z"/>
	<polygon class="st0" points="904.6,128.6 904.6,106.4 907.3,106.3 907.3,131.2 861.7,131.3 861.7,128.6 	"/>
	<polygon class="st0" points="884.4,71.9 884.4,92.1 904.6,92.1 904.6,68.5 907.3,68.4 907.3,94.7 861.7,94.8 861.7,68.5 
		864.4,68.5 864.4,92.1 881.6,92.1 881.6,71.9 	"/>
</g>
<g id="Layer_1_copy">
	<path class="st2" d="M534,56.8c-90.3,0-137.1,53.5-137.1,147.2v304.4c0,93.7,46.8,147.2,137.1,147.2c16.2,0,31.1-1.7,44.5-5.1
		V547.1c-7.6,17.1-22.3,23.9-42,23.9c-29.3,0-47.7-15-47.7-56.9v-316c0-41.8,18.4-57.7,47.7-57.7c29.3,0,47.7,15.9,47.7,57.7v62.7
		h87V204C671.1,110.3,624.3,56.8,534,56.8"/>
	<path class="st3" d="M824.8,392.6c-48.7,61.3-97,122.1-145.2,182.8c2.4,2.4,21.3,26,31.3,36c24.1-30.4,47.4-59.8,72.4-91.3v135.3
		h45.5V388.7L824.8,392.6z"/>
	<path class="st3" d="M697.7,519.9c-0.9-0.9-1.8-1.8-2.7-2.7c-0.3-0.3-0.5-0.5-0.7-0.8c-0.2-0.2-0.4-0.5-0.6-0.7v0.1
		c-33.5-42.1-66.6-83.8-100.9-126.9v264.6c6.7-8.3,12.4-15.3,17.9-22.4c9.3-11.9,22.2-22.5,26.8-36c4.6-13.8,1-30.4,1-45.7v-25.6
		c0.8-0.1,1.5-0.3,2.3-0.4c9.1,11.4,18.3,22.8,27.8,34.7c2.3-2.8,4.3-5,6.1-7.3c7.9-10,15.9-19.9,23.8-29.9
		C698.2,520.4,697.9,520.2,697.7,519.9"/>
	<path class="st2" d="M869.7,616.8h-0.2c-1.6,1.6-2.9,3.4-3.8,5.4c-0.9,2-1.4,4.2-1.4,6.5c0,2.4,0.5,4.6,1.5,6.7
		c1,2.1,2.4,3.9,4.2,5.5s3.9,2.8,6.3,3.8c2.4,0.9,5,1.4,7.7,1.4s5.2-0.4,7.7-1.3c2.4-0.9,4.5-2.1,6.4-3.6c1.8-1.5,3.3-3.4,4.3-5.5
		c1.1-2.1,1.6-4.4,1.6-7c0-2.3-0.5-4.4-1.4-6.4s-2.2-3.8-3.8-5.4l1.8-1.8c1.9,1.8,3.4,3.8,4.5,6.2c1.1,2.3,1.6,4.8,1.6,7.4
		s-0.6,5.2-1.8,7.6c-1.2,2.4-2.8,4.6-4.9,6.4c-2.1,1.9-4.5,3.3-7.2,4.5c-2.8,1.1-5.7,1.7-8.8,1.7c-3,0-5.9-0.5-8.6-1.6
		c-2.7-1-5.1-2.5-7.2-4.3c-2.1-1.8-3.7-3.9-4.9-6.4c-1.2-2.4-1.8-5.1-1.8-7.9c0-2.7,0.5-5.2,1.6-7.5c1.1-2.4,2.6-4.4,4.5-6.2
		L869.7,616.8z"/>
	<polygon class="st2" points="883.9,581.3 883.9,600.9 903.5,600.9 903.5,578 906.2,577.9 906.2,603.5 861.8,603.6 861.8,578 
		864.4,578 864.4,600.9 881.2,600.9 881.2,581.3 	"/>
	<polygon class="st2" points="861.8,563.2 900.8,540.3 861.8,540.3 861.8,537.6 906.2,537.5 906.2,540.2 867,563.2 906.2,563.2 
		906.2,565.8 861.8,565.9 	"/>
	<polygon class="st2" points="864.4,508.1 906.2,508.1 906.2,510.8 864.4,510.8 864.4,525.3 861.8,525.3 861.8,508.1 861.8,493.7 
		864.4,493.7 	"/>
	<path class="st2" d="M883.9,479.3l22.3-0.1v2.7l-44.3,0.1v-12.7c0-1.8,0.3-3.4,0.9-4.9c0.6-1.5,1.4-2.8,2.3-4c1-1.1,2.1-2,3.5-2.7
		c1.3-0.7,2.8-1,4.3-1s3,0.3,4.3,1s2.5,1.6,3.5,2.7s1.8,2.5,2.4,4c0.6,1.5,0.9,3.2,0.9,4.9v6.4l22.3-19.6v3.5L884,479.3l0,0H883.9z
		 M864.3,479.3h16.9v-10c0-1.3-0.2-2.6-0.6-3.8c-0.4-1.2-1-2.2-1.8-3.1c-0.7-0.9-1.6-1.6-2.7-2.1c-1-0.5-2.1-0.8-3.3-0.8
		s-2.2,0.3-3.3,0.8c-1,0.5-1.9,1.3-2.7,2.1c-0.8,0.9-1.4,1.9-1.8,3.1c-0.5,1.2-0.7,2.5-0.7,3.8v0.1L864.3,479.3L864.3,479.3z"/>
	<path class="st2" d="M861.8,429.5v-2.2l44.3-16.4v2.8l-18.4,6.9v15.6l18.4,6.8v2.8L861.8,429.5z M885.1,421.6l-18.5,6.9l18.5,6.8
		V421.6z"/>
	<polygon class="st2" points="903.5,397.7 903.5,376.1 906.2,376 906.2,400.3 861.8,400.4 861.8,397.7 	"/>
	<polygon class="st2" points="883.9,342.6 883.9,362.2 903.5,362.2 903.5,339.3 906.2,339.2 906.2,364.8 861.8,364.9 861.8,339.3 
		864.4,339.3 864.4,362.2 881.2,362.2 881.2,342.6 	"/>
	<polygon class="st2" points="861.8,273.4 861.8,270.6 906.2,270.5 906.2,273.3 867,273.4 890.5,287 890.5,288.6 867,302.4 
		906.2,302.4 906.2,305 861.8,305.1 861.8,302.4 886.6,287.7 	"/>
	<polygon class="st2" points="883.9,235.8 883.9,255.4 903.5,255.4 903.5,232.5 906.2,232.4 906.2,258 861.8,258.1 861.8,232.5 
		864.4,232.5 864.4,255.4 881.2,255.4 881.2,235.8 	"/>
	<path class="st2" d="M895.1,217.7c1.2-0.1,2.4-0.5,3.5-1.3c1.1-0.7,2-1.7,2.8-3c0.8-1.2,1.4-2.6,1.9-4.3c0.5-1.6,0.7-3.4,0.7-5.2
		s-0.2-3.4-0.7-5s-1.1-3-1.9-4.2c-0.8-1.2-1.7-2.2-2.8-2.9s-2.3-1.1-3.5-1.2h-33.2V188h33.2c1.6,0.1,3.1,0.6,4.5,1.4
		c1.4,0.9,2.7,2,3.7,3.5c1.1,1.5,1.9,3.1,2.5,5.1c0.6,1.9,0.9,4,0.9,6.1c0,2.2-0.3,4.3-0.9,6.3c-0.6,2-1.5,3.7-2.5,5.2
		c-1.1,1.5-2.3,2.7-3.7,3.6c-1.4,0.9-2.9,1.4-4.5,1.5h-33.2v-2.9h33.2V217.7z"/>
	<path class="st2" d="M906.2,162.1v13l-44.3,0.1v-2.7V161c0-1.6,0.4-3.2,1-4.6c0.6-1.4,1.4-2.7,2.4-3.7s2.1-1.9,3.4-2.5
		c1.3-0.6,2.7-0.9,4.1-0.9c2.2,0,4.1,0.6,5.9,1.7c1.7,1.2,3.1,2.7,4.1,4.6c0.9-2.2,2.4-4,4.4-5.3s4.1-2,6.5-2c1.7,0,3.3,0.3,4.7,1
		c1.5,0.6,2.8,1.5,3.9,2.7c1.1,1.1,2,2.5,2.7,4s1,3.2,1.1,5L906.2,162.1z M864.4,162.2v10.3h16.8V161c0-1.3-0.3-2.5-0.7-3.6
		c-0.5-1.1-1-2-1.8-2.9c-0.7-0.8-1.6-1.5-2.7-1.9c-1-0.5-2.1-0.7-3.3-0.7c-1.1,0-2.1,0.2-3.1,0.7s-1.9,1.1-2.6,1.9
		c-0.8,0.8-1.4,1.8-1.8,2.9c-0.4,1.1-0.7,2.3-0.8,3.6L864.4,162.2L864.4,162.2z M903.5,161c0-1.4-0.3-2.7-0.9-3.9
		c-0.6-1.2-1.3-2.3-2.2-3.2s-1.9-1.6-3.1-2.1c-1.2-0.5-2.4-0.8-3.7-0.8s-2.5,0.3-3.6,0.8s-2.1,1.2-3,2.1c-0.9,0.9-1.6,2-2.1,3.2
		s-0.8,2.5-0.9,3.9v11.5h19.6v-10.3L903.5,161L903.5,161z"/>
	<polygon class="st2" points="903.5,133.8 903.5,112.2 906.2,112.1 906.2,136.4 861.8,136.5 861.8,133.8 	"/>
	<polygon class="st2" points="883.9,78.7 883.9,98.3 903.5,98.3 903.5,75.4 906.2,75.3 906.2,100.9 861.8,101 861.8,75.4 
		864.4,75.4 864.4,98.3 881.2,98.3 881.2,78.7 	"/>
</g>
</svg>
